<?xml version="1.0" encoding="utf-8"?><svg version="1.1" id="Layer_1" xmlns="http://www.w3.org/2000/svg" xmlns:xlink="http://www.w3.org/1999/xlink" x="0px" y="0px" viewBox="0 0 122.88 108.79" style="enable-background:new 0 0 122.88 108.79" xml:space="preserve"><style type="text/css">.st0{fill-rule:evenodd;clip-rule:evenodd;}</style><g><path class="st0" d="M79.31,53.77c-1.98,0.6-4.01,1.1-6.08,1.5L94.1,76.13l-32.66,32.66L28.78,76.13l2.72-2.72l18.22-18.22 c-2.06-0.41-4.08-0.92-6.05-1.53l0.11-0.12c-2.12,2.42-5.23,3.95-8.69,3.95c-6.38,0-11.55-5.17-11.55-11.55 c0-0.93,0.11-1.84,0.32-2.7c-3.68-2.9-7.02-6.23-9.94-9.89c-0.76,0.16-1.55,0.24-2.35,0.24C5.17,33.58,0,28.41,0,22.03 c0-3.22,1.32-6.14,3.45-8.23c-0.97-3.04-1.71-6.19-2.19-9.42C0.95,2.29,2.4,0.35,4.49,0.04c2.09-0.31,4.04,1.14,4.34,3.23 c0.37,2.48,0.92,4.9,1.62,7.26l-0.01,0c0.37-0.04,0.74-0.05,1.11-0.05c6.38,0,11.55,5.17,11.55,11.55c0,2.78-0.98,5.32-2.61,7.31 l0.01-0.01c2.26,2.72,4.78,5.22,7.53,7.45l0,0c1.95-1.51,4.4-2.4,7.05-2.4c6.38,0,11.55,5.17,11.55,11.55 c0,0.32-0.07,1.75-0.02,0.61c3.17,0.93,6.47,1.57,9.85,1.9c3.3,0.2,6.62,0.27,9.99,0.04c3.38-0.3,6.66-0.91,9.82-1.81 c-0.02-0.24-0.02-0.49-0.02-0.74c0-6.38,5.17-11.55,11.55-11.55c2.76,0,5.3,0.97,7.28,2.59c0.15-0.12,0.3-0.24,0.45-0.36 c2.57-2.11,4.94-4.45,7.08-7c-1.76-2.03-2.83-4.68-2.83-7.58c0-6.38,5.17-11.55,11.55-11.55c0.52,0,1.04,0.04,1.54,0.1 c0.48-1.59,0.88-3.22,1.21-4.87c0.41-2.08,2.42-3.43,4.49-3.02c2.08,0.41,3.43,2.42,3.02,4.49c-0.47,2.38-1.08,4.7-1.82,6.97 c1.92,2.06,3.1,4.83,3.1,7.88c0,6.38-5.17,11.55-11.55,11.55c-0.67,0-1.32-0.06-1.96-0.17c-2.67,3.33-5.68,6.38-8.99,9.09 c-0.42,0.35-0.85,0.69-1.28,1.02c0.16,0.78,0.25,1.58,0.25,2.4c0,6.38-5.17,11.55-11.55,11.55C84.45,57.49,81.42,56.06,79.31,53.77 L79.31,53.77z M111.33,16.49c3.06,0,5.55,2.48,5.55,5.55s-2.48,5.55-5.55,5.55c-3.06,0-5.55-2.48-5.55-5.55 S108.26,16.49,111.33,16.49L111.33,16.49z M11.55,16.49c3.06,0,5.55,2.48,5.55,5.55s-2.48,5.55-5.55,5.55 C8.49,27.58,6,25.1,6,22.03S8.49,16.49,11.55,16.49L11.55,16.49z M35.08,40.39c3.06,0,5.55,2.48,5.55,5.55 c0,3.06-2.48,5.55-5.55,5.55c-3.06,0-5.55-2.48-5.55-5.55C29.53,42.87,32.01,40.39,35.08,40.39L35.08,40.39z M87.81,40.39 c3.06,0,5.55,2.48,5.55,5.55c0,3.06-2.48,5.55-5.55,5.55c-3.06,0-5.55-2.48-5.55-5.55C82.26,42.87,84.74,40.39,87.81,40.39 L87.81,40.39z M61.44,69.56c3.63,0,6.57,2.94,6.57,6.57s-2.94,6.57-6.57,6.57c-3.63,0-6.57-2.94-6.57-6.57S57.81,69.56,61.44,69.56 L61.44,69.56z M42.68,76.13l18.76-18.76L80.2,76.13L61.44,94.89L42.68,76.13L42.68,76.13z"/></g></svg>